<mxfile host="app.diagrams.net" modified="2023-08-28T22:18:17.980Z" agent="Mozilla/5.0 (Windows NT 10.0; Win64; x64) AppleWebKit/537.36 (KHTML, like Gecko) Chrome/116.0.0.0 Safari/537.36" version="21.6.9" etag="Sg7v4fweiiOoKsRQCN3N" type="github">
  <diagram name="PÃ¡gina-1" id="Tbehfclpxe66EvohVipV">
    <mxGraphModel>
      <root>
        <mxCell id="0" />
        <mxCell id="1" parent="0" />
      </root>
    </mxGraphModel>
  </diagram>
</mxfile>
